<svg xmlns="http://www.w3.org/2000/svg" viewBox="0 0 800 600" width="800" height="600">
  <defs>
    <linearGradient id="sky" x1="0%" y1="0%" x2="0%" y2="100%">
      <stop offset="0%" stop-color="#0a001a"/>
      <stop offset="40%" stop-color="#1a0a2e"/>
      <stop offset="100%" stop-color="#2a1040"/>
    </linearGradient>
    <linearGradient id="moon" x1="0%" y1="0%" x2="100%" y2="100%">
      <stop offset="0%" stop-color="#ffd700"/>
      <stop offset="100%" stop-color="#ff8c00"/>
    </linearGradient>
  </defs>
  <rect width="800" height="600" fill="url(#sky)"/>
  <!-- Moon -->
  <circle cx="650" cy="80" r="35" fill="url(#moon)" opacity="0.9"/>
  <circle cx="660" cy="75" r="30" fill="#0a001a" opacity="0.3"/>
  <!-- Stars -->
  <circle cx="100" cy="50" r="1.5" fill="#fff" opacity="0.7"/><circle cx="200" cy="90" r="1" fill="#fff" opacity="0.5"/>
  <circle cx="350" cy="30" r="1.5" fill="#fff" opacity="0.8"/><circle cx="500" cy="60" r="1" fill="#fff" opacity="0.4"/>
  <circle cx="550" cy="120" r="1.5" fill="#fff" opacity="0.6"/><circle cx="720" cy="40" r="1" fill="#fff" opacity="0.7"/>
  <circle cx="60" cy="130" r="1" fill="#fff" opacity="0.5"/><circle cx="420" cy="100" r="1.5" fill="#fff" opacity="0.6"/>
  <!-- Buildings -->
  <rect x="20" y="280" width="60" height="320" fill="#100820" stroke="#1a0a2e" stroke-width="1"/>
  <rect x="85" y="200" width="55" height="400" fill="#150a2a" stroke="#1a0a2e" stroke-width="1"/>
  <rect x="145" y="320" width="70" height="280" fill="#0d0520" stroke="#1a0a2e" stroke-width="1"/>
  <rect x="220" y="180" width="80" height="420" fill="#120825" stroke="#1a0a2e" stroke-width="1"/>
  <rect x="305" y="250" width="50" height="350" fill="#180a30" stroke="#1a0a2e" stroke-width="1"/>
  <rect x="360" y="150" width="90" height="450" fill="#0d0520" stroke="#1a0a2e" stroke-width="1"/>
  <rect x="455" y="220" width="65" height="380" fill="#150a2a" stroke="#1a0a2e" stroke-width="1"/>
  <rect x="525" y="170" width="75" height="430" fill="#100820" stroke="#1a0a2e" stroke-width="1"/>
  <rect x="605" y="290" width="60" height="310" fill="#120825" stroke="#1a0a2e" stroke-width="1"/>
  <rect x="670" y="210" width="80" height="390" fill="#0d0520" stroke="#1a0a2e" stroke-width="1"/>
  <rect x="755" y="300" width="50" height="300" fill="#150a2a" stroke="#1a0a2e" stroke-width="1"/>
  <!-- Windows -->
  <g fill="#ffd700" opacity="0.3">
    <rect x="95" y="220" width="8" height="10"/><rect x="95" y="245" width="8" height="10"/><rect x="115" y="220" width="8" height="10"/>
    <rect x="115" y="245" width="8" height="10"/><rect x="230" y="200" width="8" height="10"/><rect x="230" y="225" width="8" height="10"/>
    <rect x="260" y="200" width="8" height="10"/><rect x="260" y="225" width="8" height="10"/><rect x="230" y="250" width="8" height="10"/>
    <rect x="260" y="250" width="8" height="10"/><rect x="370" y="170" width="8" height="10"/><rect x="370" y="195" width="8" height="10"/>
    <rect x="400" y="170" width="8" height="10"/><rect x="400" y="195" width="8" height="10"/><rect x="430" y="170" width="8" height="10"/>
    <rect x="430" y="195" width="8" height="10"/><rect x="370" y="220" width="8" height="10"/><rect x="400" y="220" width="8" height="10"/>
    <rect x="535" y="190" width="8" height="10"/><rect x="535" y="215" width="8" height="10"/><rect x="560" y="190" width="8" height="10"/>
    <rect x="560" y="215" width="8" height="10"/><rect x="680" y="230" width="8" height="10"/><rect x="680" y="255" width="8" height="10"/>
    <rect x="710" y="230" width="8" height="10"/><rect x="710" y="255" width="8" height="10"/>
  </g>
  <g fill="#ff6b81" opacity="0.15">
    <rect x="155" y="340" width="8" height="10"/><rect x="180" y="340" width="8" height="10"/>
    <rect x="315" y="270" width="8" height="10"/><rect x="315" y="295" width="8" height="10"/>
    <rect x="465" y="240" width="8" height="10"/><rect x="490" y="240" width="8" height="10"/>
    <rect x="615" y="310" width="8" height="10"/><rect x="615" y="335" width="8" height="10"/>
  </g>
  <!-- Ground glow -->
  <rect x="0" y="550" width="800" height="50" fill="url(#sky)" opacity="0.5"/>
  <line x1="0" y1="555" x2="800" y2="555" stroke="#ffd700" stroke-width="0.5" opacity="0.08"/>
</svg>